#!OML:ASF I:\Actors\actors\Patient Classification 1\Patient 1\Session 1\Subject1.ASF
:FULLY-SPECIFIED
:DEGREES
915
root 0.793713 17.5516 9.42021 11.8909 -0.99616 -8.7748
lowerback 2.96387 3.19943 10.8634
upperback -5.9265 4.96358 -1.35329
thorax -6.95989 1.80233 -7.93626
lowerneck -11.1936 -6.01733 -2.74838
upperneck 30.4204 -10.4239 7.46021
head 12.4909 -4.05349 1.83009
rclavicle -2.67614e-014 -1.90833e-014
rhumerus 2.54561 41.0361 -77.8417
rradius 134.245
rwrist -14.9439
rhand 2.79523 -57.3374
rfingers 7.12502
rthumb 28.2649 -445.225
lclavicle -2.67614e-014 -1.90833e-014
lhumerus -64.5278 52.8674 28.3566
lradius 27.1629
lwrist -13.0941
lhand -33.6968 -38.5582
lfingers 7.12502
lthumb -6.8869 -8.69021
rfemur -5.04662 29.7603 24.0852
rtibia 0.926137
rfoot -13.5006 -31.3554
rtoes 8.84709
lfemur 3.52925 -49.213 -11.6054
ltibia -5.45317
lfoot -29.6875 56.7122
ltoes 18.4327
916
root 0.790834 17.5518 9.41713 11.8511 -1.0355 -8.70905
lowerback 2.93486 3.18748 10.8135
upperback -5.93214 4.93865 -1.38882
thorax -6.95444 1.7919 -7.9433
lowerneck -11.3389 -5.97523 -2.75576
upperneck 30.5499 -10.3836 7.48509
head 12.5745 -4.02463 1.84357
rclavicle 3.66509e-014 -1.03368e-014
rhumerus 2.63491 41.0293 -77.8063
rradius 134.253
rwrist -14.9112
rhand 2.81115 -57.3284
rfingers 7.12502
rthumb 28.2801 -445.214
lclavicle 3.66509e-014 -1.03368e-014
lhumerus -64.1247 52.6661 28.964
lradius 27.2482
lwrist -13.4361
lhand -34.8405 -36.5681
lfingers 7.12502
lthumb -7.99084 -6.73919
rfemur -5.02313 29.718 24.0295
rtibia 0.938524
rfoot -13.4954 -31.3008
rtoes 8.92523
lfemur 3.56525 -49.1456 -11.7019
ltibia -5.4437
lfoot -29.6846 56.667
ltoes 18.4592
917
root 0.787534 17.5513 9.41429 11.8254 -1.04717 -8.70565
lowerback 2.8935 3.16881 10.8258
upperback -5.93031 4.90799 -1.40776
thorax -6.93268 1.77701 -7.96577
lowerneck -11.4461 -5.96309 -2.58035
upperneck 30.6068 -10.357 7.30326
head 12.5956 -4.01052 1.74572
rclavicle 5.59082e-015 7.95139e-016
rhumerus 2.76695 41.0541 -77.7354
rradius 134.274
rwrist -14.9546
rhand 2.80247 -57.3374
rfingers 7.12502
rthumb 28.2718 -445.224
lclavicle 5.59082e-015 7.95139e-016
lhumerus -64.8742 52.9638 27.9278
lradius 27.1951
lwrist -13.1031
lhand -33.5788 -38.5843
lfingers 7.12502
lthumb -6.77294 -8.71261
rfemur -5.01007 29.7208 24.05
rtibia 0.951867
rfoot -13.4617 -31.2985
rtoes 8.78836
lfemur 3.55596 -48.9941 -11.6811
ltibia -5.44611
lfoot -29.4941 56.5746
ltoes 18.4124
918
root 0.784508 17.5511 9.41241 11.818 -1.07035 -8.75348
lowerback 2.81387 3.15563 10.8811
upperback -5.93003 4.8841 -1.40707
thorax -6.88811 1.76519 -7.98854
lowerneck -11.4052 -5.97728 -2.5319
upperneck 30.5604 -10.3559 7.21145
head 12.5582 -4.01936 1.70349
rclavicle 2.73329e-015 -4.05521e-014
rhumerus 2.87296 41.095 -77.7306
rradius 134.277
rwrist -14.9799
rhand 2.77738 -57.4225
rfingers 7.12502
rthumb 28.2478 -445.313
lclavicle 2.73329e-015 -4.05521e-014
lhumerus -64.9952 52.9597 27.8055
lradius 27.1929
lwrist -13.1021
lhand -33.7589 -38.4197
lfingers 7.12502
lthumb -6.94679 -8.55365
rfemur -5.03257 29.719 24.1142
rtibia 0.994399
rfoot -13.4742 -31.2489
rtoes 8.74764
lfemur 3.53032 -48.8496 -11.5997
ltibia -5.43053
lfoot -29.3805 56.4934
ltoes 18.3084
919
root 0.781743 17.5518 9.41123 11.8161 -1.12788 -8.7859
lowerback 2.70799 3.17044 10.9265
upperback -5.93304 4.89383 -1.40843
thorax -6.82498 1.77177 -8.00761
lowerneck -11.2993 -5.99082 -2.69723
upperneck 30.474 -10.3551 7.29947
head 12.5158 -4.03348 1.76748
rclavicle -1.45113e-014 4.77083e-015
rhumerus 2.94424 41.0899 -77.7452
rradius 134.241
rwrist -14.9629
rhand 2.70772 -57.4699
rfingers 7.12502
rthumb 28.1812 -445.371
lclavicle -1.45113e-014 4.77083e-015
lhumerus -65.1399 52.9847 27.636
lradius 27.1476
lwrist -13.1645
lhand -33.9155 -38.3082
lfingers 7.12502
lthumb -7.09796 -8.44727
rfemur -5.06134 29.6495 24.1511
rtibia 1.03214
rfoot -13.4353 -31.1323
rtoes 8.67364
lfemur 3.55363 -48.838 -11.5797
ltibia -5.41793
lfoot -29.6562 56.4515
ltoes 18.6704
920
root 0.779243 17.5529 9.41018 11.7895 -1.19436 -8.78314
lowerback 2.61486 3.20928 10.9599
upperback -5.92352 4.93392 -1.44082
thorax -6.74699 1.79472 -8.05524
lowerneck -11.2135 -5.99322 -2.79355
upperneck 30.3801 -10.3578 7.40117
head 12.472 -4.03894 1.82378
rclavicle 3.19546e-014 -2.78299e-014
rhumerus 2.96604 41.0099 -77.7813
rradius 134.211
rwrist -14.9393
rhand 2.6558 -57.3658
rfingers 7.12502
rthumb 28.1316 -445.276
lclavicle 3.19546e-014 -2.78299e-014
lhumerus -65.3536 53.0851 27.3135
lradius 27.0672
lwrist -13.4716
lhand -33.9496 -38.425
lfingers 7.12502
lthumb -7.13095 -8.5651
rfemur -5.04315 29.5919 24.1646
rtibia 1.03408
rfoot -13.3168 -31.0462
rtoes 8.55075
lfemur 3.64462 -48.8616 -11.6442
ltibia -5.43079
lfoot -29.9396 56.4285
ltoes 19.1628
921
root 0.777559 17.5532 9.40885 11.7578 -1.25181 -8.74534
lowerback 2.52718 3.23463 10.9594
upperback -5.90152 4.95291 -1.48565
thorax -6.66398 1.80959 -8.09598
lowerneck -11.1991 -5.97831 -2.77177
upperneck 30.3372 -10.3455 7.42856
head 12.4512 -4.02953 1.83238
rclavicle -2.64135e-014 -5.56597e-015
rhumerus 2.98954 40.9155 -77.8416
rradius 134.222
rwrist -14.9451
rhand 2.71894 -57.2584
rfingers 7.12502
rthumb 28.192 -445.158
lclavicle -2.64135e-014 -5.56597e-015
lhumerus -65.65 53.2263 26.9002
lradius 27.0311
lwrist -13.792
lhand -33.9032 -38.4975
lfingers 7.12502
lthumb -7.08614 -8.63608
rfemur -5.01802 29.5885 24.1339
rtibia 1.03144
rfoot -13.2896 -31.0021
rtoes 8.69239
lfemur 3.71311 -48.8077 -11.7417
ltibia -5.43211
lfoot -29.9946 56.411
ltoes 19.2342
922
root 0.776463 17.5524 9.40681 11.7496 -1.29096 -8.73156
lowerback 2.46415 3.23601 10.9772
upperback -5.89722 4.94649 -1.5063
thorax -6.6213 1.808 -8.12269
lowerneck -11.2943 -5.96425 -2.74536
upperneck 30.4226 -10.3274 7.38592
head 12.5006 -4.01815 1.81223
rclavicle -5.35476e-014 2.38542e-015
rhumerus 3.02694 40.8334 -77.9075
rradius 134.255
rwrist -14.9627
rhand 2.90923 -57.2041
rfingers 7.12502
rthumb 28.3738 -445.074
lclavicle -5.35476e-014 2.38542e-015
lhumerus -65.9078 53.2845 26.609
lradius 27.0572
lwrist -13.8307
lhand -33.806 -38.3763
lfingers 7.12502
lthumb -6.99229 -8.51183
rfemur -5.02953 29.583 24.1151
rtibia 1.04211
rfoot -13.2999 -30.9586
rtoes 8.66651
lfemur 3.73853 -48.7786 -11.7765
ltibia -5.44131
lfoot -29.9163 56.4605
ltoes 19.0249
923
root 0.775286 17.5516 9.40411 11.7426 -1.31747 -8.74372
lowerback 2.42785 3.23978 11.025
upperback -5.91248 4.94973 -1.5264
thorax -6.61184 1.80645 -8.16938
lowerneck -11.3547 -5.94784 -2.66259
upperneck 30.5009 -10.309 7.3139
head 12.5345 -4.00518 1.77246
rclavicle 1.64246e-014 1.90833e-014
rhumerus 2.99761 40.7329 -78.0267
rradius 134.3
rwrist -14.9474
rhand 3.0541 -57.1995
rfingers 7.12502
rthumb 28.5123 -445.046
lclavicle 1.64246e-014 1.90833e-014
lhumerus -66.0505 53.2491 26.4341
lradius 27.0357
lwrist -13.7951
lhand -33.7833 -38.269
lfingers 7.12502
lthumb -6.97035 -8.40378
rfemur -5.04088 29.5645 24.1285
rtibia 1.05353
rfoot -13.2787 -30.8944
rtoes 8.46752
lfemur 3.77562 -48.8495 -11.7883
ltibia -5.44815
lfoot -29.8848 56.548
ltoes 18.9758
924
root 0.774103 17.551 9.40176 11.71 -1.33115 -8.73992
lowerback 2.39607 3.24558 11.0578
upperback -5.92805 4.95493 -1.55349
thorax -6.60518 1.80628 -8.21573
lowerneck -11.2859 -5.91254 -2.56059
upperneck 30.4657 -10.266 7.27691
head 12.4942 -3.98245 1.74951
rclavicle 2.57799e-014 1.59028e-015
rhumerus 2.91599 40.6569 -78.1692
rradius 134.327
rwrist -14.93
rhand 3.06294 -57.3147
rfingers 7.12502
rthumb 28.5207 -445.16
lclavicle 2.57799e-014 1.59028e-015
lhumerus -66.1583 53.1649 26.2755
lradius 26.9538
lwrist -13.8461
lhand -33.8389 -38.36
lfingers 7.12502
lthumb -7.02404 -8.4965
rfemur -5.00047 29.5492 24.1415
rtibia 1.03823
rfoot -13.2574 -30.8354
rtoes 8.38131
lfemur 3.84131 -48.9337 -11.8539
ltibia -5.42694
lfoot -30.0312 56.5832
ltoes 19.2427
925
root 0.77269 17.5511 9.40043 11.6753 -1.32653 -8.74488
lowerback 2.32992 3.23016 11.0834
upperback -5.91604 4.92683 -1.55119
thorax -6.55857 1.79477 -8.22052
lowerneck -11.2751 -5.86061 -2.55289
upperneck 30.4527 -10.1975 7.29863
head 12.483 -3.94932 1.76694
rclavicle -1.15544e-015 -9.54166e-015
rhumerus 2.95066 40.6561 -78.2221
rradius 134.3
rwrist -14.9169
rhand 3.05812 -57.3814
rfingers 7.12502
rthumb 28.5161 -445.227
lclavicle -1.15544e-015 -9.54166e-015
lhumerus -66.3951 53.169 25.9923
lradius 26.8633
lwrist -13.9149
lhand -33.7885 -38.6007
lfingers 7.12502
lthumb -6.97538 -8.73563
rfemur -4.94385 29.5814 24.1784
rtibia 1.01913
rfoot -13.2392 -30.8744
rtoes 8.31698
lfemur 3.88048 -48.9308 -11.8819
ltibia -5.40624
lfoot -30.1448 56.5517
ltoes 19.3554
